<mxfile host="app.diagrams.net" modified="2021-11-02T03:26:47.598Z" agent="5.0 (Windows NT 10.0; Win64; x64) AppleWebKit/537.36 (KHTML, like Gecko) Chrome/95.0.4638.54 Safari/537.36 Edg/95.0.1020.40" etag="ic0p1Kog6SVPZ-O0rPtk" version="15.5.8" type="github">
  <diagram id="7Nk7TRP8nFIlkjav60eu" name="第 1 页">
    <mxGraphModel dx="1422" dy="825" grid="1" gridSize="10" guides="1" tooltips="1" connect="1" arrows="1" fold="1" page="1" pageScale="1" pageWidth="827" pageHeight="1169" math="0" shadow="0">
      <root>
        <mxCell id="0" />
        <mxCell id="1" parent="0" />
        <mxCell id="cHnr6tjg5TiGfYAuIrnJ-3" value="" style="edgeStyle=orthogonalEdgeStyle;rounded=0;orthogonalLoop=1;jettySize=auto;html=1;fontSize=14;" edge="1" parent="1" source="cHnr6tjg5TiGfYAuIrnJ-1" target="cHnr6tjg5TiGfYAuIrnJ-2">
          <mxGeometry relative="1" as="geometry" />
        </mxCell>
        <mxCell id="cHnr6tjg5TiGfYAuIrnJ-7" value="" style="edgeStyle=orthogonalEdgeStyle;rounded=0;orthogonalLoop=1;jettySize=auto;html=1;fontSize=14;" edge="1" parent="1" source="cHnr6tjg5TiGfYAuIrnJ-1" target="cHnr6tjg5TiGfYAuIrnJ-6">
          <mxGeometry relative="1" as="geometry" />
        </mxCell>
        <mxCell id="cHnr6tjg5TiGfYAuIrnJ-1" value="nvim" style="rounded=0;whiteSpace=wrap;html=1;fontSize=14;" vertex="1" parent="1">
          <mxGeometry x="120" y="320" width="120" height="60" as="geometry" />
        </mxCell>
        <mxCell id="cHnr6tjg5TiGfYAuIrnJ-5" value="" style="edgeStyle=orthogonalEdgeStyle;rounded=0;orthogonalLoop=1;jettySize=auto;html=1;fontSize=14;" edge="1" parent="1" source="cHnr6tjg5TiGfYAuIrnJ-2" target="cHnr6tjg5TiGfYAuIrnJ-4">
          <mxGeometry relative="1" as="geometry" />
        </mxCell>
        <mxCell id="cHnr6tjg5TiGfYAuIrnJ-2" value="tui" style="whiteSpace=wrap;html=1;rounded=0;fontSize=14;" vertex="1" parent="1">
          <mxGeometry x="320" y="320" width="120" height="60" as="geometry" />
        </mxCell>
        <mxCell id="cHnr6tjg5TiGfYAuIrnJ-13" value="" style="edgeStyle=orthogonalEdgeStyle;rounded=0;orthogonalLoop=1;jettySize=auto;html=1;fontSize=14;" edge="1" parent="1" source="cHnr6tjg5TiGfYAuIrnJ-4" target="cHnr6tjg5TiGfYAuIrnJ-12">
          <mxGeometry relative="1" as="geometry" />
        </mxCell>
        <mxCell id="cHnr6tjg5TiGfYAuIrnJ-4" value="shell" style="whiteSpace=wrap;html=1;rounded=0;fontSize=14;" vertex="1" parent="1">
          <mxGeometry x="520" y="320" width="120" height="60" as="geometry" />
        </mxCell>
        <mxCell id="cHnr6tjg5TiGfYAuIrnJ-9" value="" style="edgeStyle=orthogonalEdgeStyle;rounded=0;orthogonalLoop=1;jettySize=auto;html=1;fontSize=14;" edge="1" parent="1" source="cHnr6tjg5TiGfYAuIrnJ-6" target="cHnr6tjg5TiGfYAuIrnJ-8">
          <mxGeometry relative="1" as="geometry" />
        </mxCell>
        <mxCell id="cHnr6tjg5TiGfYAuIrnJ-6" value="api" style="whiteSpace=wrap;html=1;rounded=0;fontSize=14;" vertex="1" parent="1">
          <mxGeometry x="120" y="460" width="120" height="60" as="geometry" />
        </mxCell>
        <mxCell id="cHnr6tjg5TiGfYAuIrnJ-11" value="" style="edgeStyle=orthogonalEdgeStyle;rounded=0;orthogonalLoop=1;jettySize=auto;html=1;fontSize=14;" edge="1" parent="1" source="cHnr6tjg5TiGfYAuIrnJ-8" target="cHnr6tjg5TiGfYAuIrnJ-10">
          <mxGeometry relative="1" as="geometry" />
        </mxCell>
        <mxCell id="cHnr6tjg5TiGfYAuIrnJ-8" value="nvui" style="whiteSpace=wrap;html=1;rounded=0;fontSize=14;" vertex="1" parent="1">
          <mxGeometry x="120" y="600" width="120" height="60" as="geometry" />
        </mxCell>
        <mxCell id="cHnr6tjg5TiGfYAuIrnJ-10" value="gui" style="whiteSpace=wrap;html=1;rounded=0;fontSize=14;" vertex="1" parent="1">
          <mxGeometry x="320" y="600" width="120" height="60" as="geometry" />
        </mxCell>
        <mxCell id="cHnr6tjg5TiGfYAuIrnJ-15" value="" style="edgeStyle=orthogonalEdgeStyle;rounded=0;orthogonalLoop=1;jettySize=auto;html=1;fontSize=14;" edge="1" parent="1" source="cHnr6tjg5TiGfYAuIrnJ-12" target="cHnr6tjg5TiGfYAuIrnJ-14">
          <mxGeometry relative="1" as="geometry" />
        </mxCell>
        <mxCell id="cHnr6tjg5TiGfYAuIrnJ-12" value="windows&amp;nbsp;terminal" style="whiteSpace=wrap;html=1;rounded=0;fontSize=14;" vertex="1" parent="1">
          <mxGeometry x="720" y="320" width="120" height="60" as="geometry" />
        </mxCell>
        <mxCell id="cHnr6tjg5TiGfYAuIrnJ-14" value="gui" style="whiteSpace=wrap;html=1;rounded=0;fontSize=14;" vertex="1" parent="1">
          <mxGeometry x="720" y="460" width="120" height="60" as="geometry" />
        </mxCell>
      </root>
    </mxGraphModel>
  </diagram>
</mxfile>
